<svg xmlns="http://www.w3.org/2000/svg" xmlns:xlink="http://www.w3.org/1999/xlink" viewBox="0 0 95.48099999999998 83.93697278401002" height="83.93697278401002" width="95.48099999999998" data-background-color="#ffffff" preserveAspectRatio="xMidYMid meet" id="tight-bounds"><g><svg viewBox="0 0 95.48099999999998 83.93697278401002" height="83.93697278401002" width="95.48099999999998"><g><svg viewBox="0 0 95.48099999999998 83.93697278401002" height="83.93697278401002" width="95.48099999999998"><g id="textblocktransform"><svg viewBox="0 0 95.48099999999998 83.93697278401002" height="83.93697278401002" width="95.48099999999998" id="textblock"><g><svg viewBox="0 0 95.48099999999998 83.93697278401002" height="83.93697278401002" width="95.48099999999998"><g><svg viewBox="0 0 95.48099999999998 83.93697278401002" height="83.93697278401002" width="95.48099999999998"><g><svg xmlns="http://www.w3.org/2000/svg" xmlns:xlink="http://www.w3.org/1999/xlink" version="1.1" x="0" y="0" viewBox="7 7.699999809265137 88.5 77.80000305175781" style="enable-background:new 0 0 100 100;" xml:space="preserve" height="83.93697278401002" width="95.48099999999998" class="icon-icon-0" data-fill-palette-color="accent" id="icon-0"><g fill="#8abe53" data-fill-palette-color="accent"><path d="M71.8 63C68.8 63 66.4 65.4 66.4 68.4S68.8 73.8 71.8 73.8 77.2 71.4 77.2 68.4C77.3 65.5 74.8 63 71.8 63M71.8 72.3C69.6 72.3 67.9 70.5 67.9 68.4 67.9 66.2 69.7 64.5 71.8 64.5 74 64.5 75.7 66.3 75.7 68.4 75.8 70.6 74 72.3 71.8 72.3M31.3 58.9C29.6 58.9 28 59.2 26.5 59.8V59.4C27.6 58.5 29 56.8 29 55.2V49.8C29 47.1 26.8 45 24.2 45H11.8C9.2 45 7 47.2 7 49.8V55.2C7 57.9 9.2 60 11.8 60H20.7L22.7 62C19.8 64.4 18 68 18 72.1 18 78.9 23.1 84.5 29.7 85.3 30.2 85.4 30.7 85.4 31.2 85.4 31.8 85.4 32.3 85.3 32.9 85.3 39.4 84.5 44.5 78.9 44.5 72.2 44.6 64.8 38.6 58.9 31.3 58.9M21.5 58.8C21.4 58.7 21.2 58.6 21 58.6H11.8C10 58.6 8.5 57.1 8.5 55.3V49.9C8.5 48.1 10 46.6 11.8 46.6H24.2C26 46.6 27.5 48.1 27.5 49.9V55.3C27.5 56.3 26.3 57.8 25.3 58.5 25.1 58.6 25 58.9 25 59.1V62.2zM31.3 83.9C30.2 83.9 29 83.7 27.9 83.3L27 79.6C27.1 77.4 29.8 76.6 31.5 76.6S35.8 77.4 36 79.6L35.1 83.2C33.9 83.7 32.6 83.9 31.3 83.9M36.8 82.5L37.5 79.7C37.5 76.6 34.3 75 31.5 75S25.5 76.5 25.5 79.7L26.3 82.7C22.3 80.8 19.6 76.8 19.6 72.1 19.6 68.5 21.2 65.2 23.8 63.1L25.2 64.5C25.3 64.6 25.5 64.7 25.7 64.7 25.8 64.7 25.9 64.7 26 64.6 26.3 64.5 26.5 64.2 26.5 63.9V61.3C28 60.6 29.6 60.3 31.3 60.3 37.8 60.3 43.1 65.6 43.1 72.1 43.1 76.7 40.5 80.6 36.8 82.5M31.5 63C28.5 63 26.1 65.4 26.1 68.4S28.5 73.8 31.5 73.8 36.9 71.4 36.9 68.4C36.9 65.5 34.5 63 31.5 63M31.5 72.3C29.3 72.3 27.6 70.5 27.6 68.4 27.6 66.2 29.4 64.5 31.5 64.5S35.4 66.3 35.4 68.4C35.4 70.6 33.7 72.3 31.5 72.3M64.9 35.4C64.9 28.1 59 22.1 51.6 22.1 50.3 22.1 49.1 22.3 48 22.6V22.1C49.1 21.3 50.4 19.6 50.4 17.9V12.5C50.4 9.8 48.2 7.7 45.6 7.7H33.3C30.6 7.7 28.5 9.9 28.5 12.5V18C28.5 20.7 30.7 22.8 33.3 22.8H42.2L44 24.6C40.6 27 38.4 30.9 38.4 35.4 38.4 42.7 44.3 48.7 51.7 48.7S64.9 42.7 64.9 35.4M43 21.5C42.9 21.4 42.7 21.3 42.5 21.3H33.3C31.5 21.3 30 19.8 30 18V12.6C30 10.8 31.5 9.3 33.3 9.3H45.7C47.5 9.3 49 10.8 49 12.6V18C49 19 47.9 20.5 46.9 21.2 46.7 21.3 46.6 21.6 46.6 21.8V25zM55.4 46.3C54.2 46.8 53 47.1 51.7 47.1 50.6 47.1 49.4 46.9 48.3 46.5L47.4 42.8C47.5 40.6 50.2 39.8 51.9 39.8S56.2 40.6 56.4 42.8zM57.1 45.8L57.9 42.9C57.9 39.8 54.7 38.2 51.9 38.2S45.9 39.7 45.9 42.9L46.7 46C42.7 44.1 40 40.1 40 35.4 40 31.4 42 27.8 45.2 25.7L46.8 27.3C46.9 27.4 47.1 27.5 47.3 27.5 47.4 27.5 47.5 27.5 47.6 27.4 47.9 27.3 48.1 27 48.1 26.7V24.1C49.2 23.7 50.5 23.5 51.7 23.5 58.2 23.5 63.5 28.8 63.5 35.3 63.4 39.9 60.8 43.8 57.1 45.8M54.9 27.2C54.3 26.8 53.7 26.5 53 26.4 52.6 26.3 52.3 26.3 51.9 26.3 48.9 26.3 46.5 28.7 46.5 31.7S48.9 37.1 51.9 37.1C52.3 37.1 52.6 37.1 53 37 53.7 36.9 54.4 36.6 54.9 36.2 56.3 35.2 57.3 33.6 57.3 31.7S56.3 28.2 54.9 27.2M51.8 35.6C49.6 35.6 47.9 33.8 47.9 31.7S49.7 27.8 51.8 27.8C54 27.8 55.7 29.6 55.7 31.7S54 35.6 51.8 35.6M90.7 45H78.3C75.6 45 73.5 47.2 73.5 49.8V55.2C73.5 56.7 74.6 58.4 75.8 59.3V59.5C74.5 59.1 73.1 58.8 71.7 58.8 64.4 58.8 58.4 64.7 58.4 72.1 58.4 78.2 62.5 83.3 68.1 84.8 69.3 85.2 70.5 85.5 71.8 85.5 73.5 85.5 75.2 85.1 76.7 84.3H76.8C81.6 82.3 84.9 77.6 84.9 72.1 84.9 67.9 83 64.2 80 61.8L81.8 60H90.7C93.4 60 95.5 57.8 95.5 55.2V49.8C95.5 47.2 93.4 45 90.7 45M75.5 83.3C74.3 83.8 73.1 84.1 71.8 84.1 70.7 84.1 69.5 83.9 68.4 83.5L67.5 79.8C67.6 77.6 70.3 76.8 72 76.8S76.3 77.6 76.5 79.8zM83.4 72.1C83.4 76.5 80.9 80.4 77.3 82.4L78 79.8C78 76.7 74.8 75.1 72 75.1S66 76.6 66 79.8L66.7 82.7C62.7 80.8 59.9 76.8 59.9 72.1 59.9 65.6 65.2 60.3 71.7 60.3 73.2 60.3 74.6 60.6 75.9 61.1L76 64C76 64.3 76.2 64.6 76.5 64.7 76.6 64.7 76.7 64.8 76.8 64.8 77 64.8 77.2 64.7 77.3 64.6L78.9 63C81.7 65.1 83.4 68.4 83.4 72.1M94 55.2C94 57 92.5 58.5 90.7 58.5H81.5C81.3 58.5 81.1 58.6 81 58.7L77.4 62.2 77.2 58.8C77.2 58.6 77.1 58.3 76.9 58.2 76 57.6 75 56.2 75 55.1V49.7C75 47.9 76.5 46.4 78.3 46.4H90.7C92.5 46.4 94 47.9 94 49.7zM61.7 52.7L57.3 51.8C56.9 51.7 56.6 51.3 56.7 50.9S57.2 50.2 57.6 50.3L58.5 50.5 61.4 51.1 62.2 48.4 62.4 47.7C62.5 47.3 62.9 47.1 63.3 47.2S63.9 47.7 63.8 48.1L62.6 52.2C62.5 52.5 62.2 52.7 61.9 52.7zM64.3 56.5L65.1 53.8 65.3 53.1C65.4 52.7 65.8 52.5 66.2 52.6S66.8 53.1 66.7 53.5L65.5 57.6C65.4 57.9 65.1 58.1 64.8 58.1H64.7L60.3 57.2C59.9 57.1 59.6 56.7 59.7 56.3S60.2 55.6 60.6 55.7L61.5 55.9zM35 55.3L39.4 54.3C39.8 54.2 40.2 54.4 40.3 54.8L41.6 58.8C41.7 59.2 41.5 59.6 41.1 59.7H40.9C40.6 59.7 40.3 59.5 40.2 59.2L40 58.5 39.1 55.9 36.2 56.6 35.4 56.8C35 56.9 34.6 56.6 34.5 56.2S34.6 55.4 35 55.3M37.1 50.8C37 50.4 37.3 50 37.7 49.9L42.1 48.9C42.5 48.8 42.9 49 43 49.4L44.3 53.4C44.4 53.8 44.2 54.2 43.8 54.3H43.6C43.3 54.3 43 54.1 42.9 53.8L42.7 53.1 41.8 50.5 38.9 51.2 38 51.4C37.6 51.5 37.2 51.2 37.1 50.8M56.5 74.9C56.8 75.2 56.8 75.6 56.6 76 56.5 76.2 56.2 76.3 56 76.3S55.6 76.2 55.5 76.1L52.3 73.3C52 73 52 72.6 52.2 72.3L54.9 68.7C55.1 68.4 55.6 68.3 55.9 68.5S56.3 69.2 56.1 69.5L55.6 70.2 53.8 72.6 55.9 74.4zM50.9 74.7C51.2 75 51.2 75.4 51 75.8 50.8 76 50.6 76 50.4 76S50 75.9 49.9 75.8L46.7 73C46.4 72.7 46.4 72.3 46.6 72L49.3 68.4C49.5 68.1 50 68 50.3 68.2S50.7 68.9 50.5 69.2L50 70 48.2 72.4 50.3 74.2z" fill="#8abe53" data-fill-palette-color="accent"/></g></svg></g></svg></g></svg></g></svg></g></svg></g><g/></svg></g><defs/></svg>