<svg xmlns="http://www.w3.org/2000/svg" version="1.1" xmlns:xlink="http://www.w3.org/1999/xlink" xmlns:svgjs="http://svgjs.dev/svgjs" width="2000" height="1500" viewBox="0 0 2000 1500"><rect width="2000" height="1500" fill="#ffffff"></rect><g transform="matrix(0.75,0,0,0.75,249.090909090909,478.81763377060634)"><svg viewBox="0 0 396 143" data-background-color="#ffffff" preserveAspectRatio="xMidYMid meet" height="722" width="2000" xmlns="http://www.w3.org/2000/svg" xmlns:xlink="http://www.w3.org/1999/xlink"><g id="tight-bounds" transform="matrix(1,0,0,1,0.2400000000000091,0.11417981681125866)"><svg viewBox="0 0 395.52 142.77164036637748" height="142.77164036637748" width="395.52"><g><svg viewBox="0 0 397.4975999999999 143.48549856820935" height="142.77164036637748" width="395.52"><g><rect width="397.4975999999999" height="2.794141623057199" x="0" y="80.45395200467803" fill="#8abe53" opacity="1" stroke-width="0" stroke="transparent" fill-opacity="1" class="rect-yte-0" data-fill-palette-color="secondary" rx="1%" id="yte-0" data-palette-color="#8abe53"></rect></g><g transform="matrix(1,0,0,1,0.9887999999999693,90.56260049437711)"><svg viewBox="0 0 395.52 52.922898073832236" height="52.922898073832236" width="395.52"><g id="textblocktransform"><svg viewBox="0 0 395.52 52.922898073832236" height="52.922898073832236" width="395.52" id="textblock"><g><svg viewBox="0 0 395.52 30.983695363534974" height="30.983695363534974" width="395.52"><g transform="matrix(1,0,0,1,0,0)"><svg width="395.52" viewBox="4.49 -36.01 459.65999999999997 36.01" height="30.983695363534974" data-palette-color="#096a2e"><path d="M9.5-27.15L9.5 0 4.49 0 4.49-35.01 9.5-35.01 30.54-7.86 30.54-35.01 35.55-35.01 35.55 0 30.54 0 9.5-27.15ZM44.04-4.81L44.04-11.35Q44.04-12.35 44.42-13.22 44.8-14.09 45.44-14.75 46.09-15.41 46.97-15.78 47.85-16.16 48.83-16.16L48.83-16.16 61.23-16.16 61.23-21.19 45.53-21.19 45.53-26 61.23-26Q62.23-26 63.11-25.62 63.99-25.24 64.63-24.6 65.28-23.95 65.66-23.07 66.04-22.19 66.04-21.19L66.04-21.19 66.04 0 61.23 0 61.23-4.39Q61.15-3.49 60.74-2.69 60.32-1.88 59.68-1.28 59.03-0.68 58.2-0.34 57.37 0 56.44 0L56.44 0 48.83 0Q47.85 0 46.97-0.38 46.09-0.76 45.44-1.4 44.8-2.05 44.42-2.93 44.04-3.81 44.04-4.81L44.04-4.81ZM48.83-11.35L48.83-4.81 61.23-4.81 61.23-11.35 48.83-11.35ZM105.63-21.19L94.65-21.19 94.65 0 89.84 0 89.84-21.19 78.83-21.19 78.83 0 74.04 0 74.04-26 78.83-26 78.83-21.41Q78.88-22.36 79.27-23.21 79.66-24.05 80.31-24.67 80.95-25.29 81.81-25.65 82.66-26 83.64-26L83.64-26 89.84-26Q90.79-26 91.65-25.65 92.5-25.29 93.16-24.67 93.82-24.05 94.22-23.21 94.62-22.36 94.65-21.41L94.65-21.41Q94.7-22.36 95.08-23.21 95.45-24.05 96.1-24.67 96.75-25.29 97.6-25.65 98.46-26 99.43-26L99.43-26 105.63-26Q106.64-26 107.51-25.62 108.39-25.24 109.04-24.6 109.69-23.95 110.07-23.07 110.44-22.19 110.44-21.19L110.44-21.19 110.44 0 105.63 0 105.63-21.19ZM150.04-21.19L139.06-21.19 139.06 0 134.25 0 134.25-21.19 123.23-21.19 123.23 0 118.45 0 118.45-26 123.23-26 123.23-21.41Q123.28-22.36 123.67-23.21 124.06-24.05 124.71-24.67 125.36-25.29 126.21-25.65 127.07-26 128.04-26L128.04-26 134.25-26Q135.2-26 136.05-25.65 136.91-25.29 137.57-24.67 138.22-24.05 138.63-23.21 139.03-22.36 139.06-21.41L139.06-21.41Q139.1-22.36 139.48-23.21 139.86-24.05 140.51-24.67 141.15-25.29 142.01-25.65 142.86-26 143.84-26L143.84-26 150.04-26Q151.04-26 151.92-25.62 152.8-25.24 153.45-24.6 154.09-23.95 154.47-23.07 154.85-22.19 154.85-21.19L154.85-21.19 154.85 0 150.04 0 150.04-21.19ZM162.86-4.81L162.86-11.35Q162.86-12.35 163.23-13.22 163.61-14.09 164.26-14.75 164.91-15.41 165.79-15.78 166.66-16.16 167.64-16.16L167.64-16.16 180.04-16.16 180.04-21.19 164.35-21.19 164.35-26 180.04-26Q181.04-26 181.92-25.62 182.8-25.24 183.45-24.6 184.1-23.95 184.47-23.07 184.85-22.19 184.85-21.19L184.85-21.19 184.85 0 180.04 0 180.04-4.39Q179.97-3.49 179.56-2.69 179.14-1.88 178.49-1.28 177.85-0.68 177.02-0.34 176.19 0 175.26 0L175.26 0 167.64 0Q166.66 0 165.79-0.38 164.91-0.76 164.26-1.4 163.61-2.05 163.23-2.93 162.86-3.81 162.86-4.81L162.86-4.81ZM167.64-11.35L167.64-4.81 180.04-4.81 180.04-11.35 167.64-11.35ZM193.35 0L193.35-35.01 218.86-35.01 218.86-30 198.35-30 198.35-20 215.86-20 215.86-14.99 198.35-14.99 198.35 0 193.35 0ZM240.05-21.19L230.14-21.19 230.14 0 225.35 0 225.35-26 230.14-26 230.14-21.41Q230.19-22.36 230.58-23.21 230.97-24.05 231.61-24.67 232.26-25.29 233.11-25.65 233.97-26 234.95-26L234.95-26 240.05-26Q241.05-26 241.92-25.62 242.78-25.24 243.44-24.6 244.1-23.95 244.48-23.07 244.86-22.19 244.86-21.19L244.86-21.19 244.86-16.8 240.05-16.8 240.05-21.19ZM272.83-21.19L272.83-10.55 255.62-10.55 255.62-4.81 272.83-4.81 272.83 0 255.62 0Q254.65 0 253.77-0.38 252.89-0.76 252.24-1.4 251.59-2.05 251.22-2.93 250.84-3.81 250.84-4.81L250.84-4.81 250.84-21.19Q250.84-22.19 251.22-23.07 251.59-23.95 252.24-24.6 252.89-25.24 253.77-25.62 254.65-26 255.62-26L255.62-26 268.02-26Q269.03-26 269.9-25.62 270.78-25.24 271.43-24.6 272.08-23.95 272.46-23.07 272.83-22.19 272.83-21.19L272.83-21.19ZM268.02-21.19L255.62-21.19 255.62-15.36 268.02-15.36 268.02-21.19ZM302.84-21.19L302.84-10.55 285.62-10.55 285.62-4.81 302.84-4.81 302.84 0 285.62 0Q284.65 0 283.77-0.38 282.89-0.76 282.24-1.4 281.6-2.05 281.22-2.93 280.84-3.81 280.84-4.81L280.84-4.81 280.84-21.19Q280.84-22.19 281.22-23.07 281.6-23.95 282.24-24.6 282.89-25.24 283.77-25.62 284.65-26 285.62-26L285.62-26 298.03-26Q299.03-26 299.91-25.62 300.79-25.24 301.43-24.6 302.08-23.95 302.46-23.07 302.84-22.19 302.84-21.19L302.84-21.19ZM298.03-21.19L285.62-21.19 285.62-15.36 298.03-15.36 298.03-21.19ZM310.84-36.01L315.63-36.01 315.63 0 310.84 0 310.84-36.01ZM323.63-4.81L323.63-11.35Q323.63-12.35 324.01-13.22 324.39-14.09 325.04-14.75 325.68-15.41 326.56-15.78 327.44-16.16 328.42-16.16L328.42-16.16 340.82-16.16 340.82-21.19 325.12-21.19 325.12-26 340.82-26Q341.82-26 342.7-25.62 343.58-25.24 344.23-24.6 344.87-23.95 345.25-23.07 345.63-22.19 345.63-21.19L345.63-21.19 345.63 0 340.82 0 340.82-4.39Q340.75-3.49 340.33-2.69 339.92-1.88 339.27-1.28 338.62-0.68 337.79-0.34 336.96 0 336.03 0L336.03 0 328.42 0Q327.44 0 326.56-0.38 325.68-0.76 325.04-1.4 324.39-2.05 324.01-2.93 323.63-3.81 323.63-4.81L323.63-4.81ZM328.42-11.35L328.42-4.81 340.82-4.81 340.82-11.35 328.42-11.35ZM376.63-21.19L376.63 0 371.82 0 371.82-21.19 358.42-21.19 358.42 0 353.63 0 353.63-26 358.42-26 358.42-21.41Q358.47-22.36 358.86-23.21 359.25-24.05 359.9-24.67 360.54-25.29 361.4-25.65 362.25-26 363.23-26L363.23-26 371.82-26Q372.82-26 373.7-25.62 374.58-25.24 375.23-24.6 375.88-23.95 376.25-23.07 376.63-22.19 376.63-21.19L376.63-21.19ZM401.83-21.19L389.42-21.19 389.42-4.81 401.83-4.81 401.83-9.2 406.64-9.2 406.64-4.81Q406.64-3.81 406.26-2.93 405.88-2.05 405.23-1.4 404.58-0.76 403.71-0.38 402.83 0 401.83 0L401.83 0 389.42 0Q388.45 0 387.57-0.38 386.69-0.76 386.04-1.4 385.39-2.05 385.02-2.93 384.64-3.81 384.64-4.81L384.64-4.81 384.64-21.19Q384.64-22.19 385.02-23.07 385.39-23.95 386.04-24.6 386.69-25.24 387.57-25.62 388.45-26 389.42-26L389.42-26 401.83-26Q402.83-26 403.71-25.62 404.58-25.24 405.23-24.6 405.88-23.95 406.26-23.07 406.64-22.19 406.64-21.19L406.64-21.19 406.64-16.8 401.83-16.8 401.83-21.19ZM436.64-21.19L436.64-10.55 419.43-10.55 419.43-4.81 436.64-4.81 436.64 0 419.43 0Q418.45 0 417.57-0.38 416.69-0.76 416.04-1.4 415.4-2.05 415.02-2.93 414.64-3.81 414.64-4.81L414.64-4.81 414.64-21.19Q414.64-22.19 415.02-23.07 415.4-23.95 416.04-24.6 416.69-25.24 417.57-25.62 418.45-26 419.43-26L419.43-26 431.83-26Q432.83-26 433.71-25.62 434.59-25.24 435.23-24.6 435.88-23.95 436.26-23.07 436.64-22.19 436.64-21.19L436.64-21.19ZM431.83-21.19L419.43-21.19 419.43-15.36 431.83-15.36 431.83-21.19ZM459.34-21.19L449.43-21.19 449.43 0 444.64 0 444.64-26 449.43-26 449.43-21.41Q449.48-22.36 449.87-23.21 450.26-24.05 450.9-24.67 451.55-25.29 452.41-25.65 453.26-26 454.24-26L454.24-26 459.34-26Q460.34-26 461.21-25.62 462.07-25.24 462.73-24.6 463.39-23.95 463.77-23.07 464.15-22.19 464.15-21.19L464.15-21.19 464.15-16.8 459.34-16.8 459.34-21.19Z" opacity="1" transform="matrix(1,0,0,1,0,0)" fill="#096a2e" class="wordmark-text-0" data-fill-palette-color="primary" id="text-0"></path></svg></g></svg></g><g transform="matrix(1,0,0,1,0,38.298202230176855)"><svg viewBox="0 0 395.52 14.624695843655381" height="14.624695843655381" width="395.52"><g transform="matrix(1,0,0,1,0,0)"><svg width="395.52" viewBox="2.9 -32.45 1089.79 40.300000000000004" height="14.624695843655381" data-palette-color="#8abe53"><path d="M8.6 0Q7.05 0 5.25 0.25 3.45 0.5 2.9 0.6L2.9 0.6 3.2-1.7Q5.5-2.15 6.3-3.03 7.1-3.9 7.1-6L7.1-6 7.15-27Q7.15-28.6 6.78-29.15 6.4-29.7 5.3-29.7L5.3-29.7Q4.8-29.7 4.3-29.65 3.8-29.6 3.6-29.6L3.6-29.6 3.5-29.8 3.85-32Q4.45-31.95 6.1-31.9 7.75-31.85 9.4-31.85L9.4-31.85Q11.1-31.85 12.88-31.93 14.65-32 15.3-32.05L15.3-32.05Q20.05-32.05 22.6-30.08 25.15-28.1 25.15-24.45L25.15-24.45Q25.15-21.95 23.63-19.95 22.1-17.95 19.35-16.75L19.35-16.75Q23-15.95 25.05-13.95 27.1-11.95 27.1-9.15L27.1-9.15Q27.1-6.6 25.48-4.38 23.85-2.15 21.15-0.83 18.45 0.5 15.35 0.5L15.35 0.5Q14 0.5 12.25 0.25L12.25 0.25Q9.4 0 8.6 0L8.6 0ZM10.95-17.55Q11.7-17.5 13.48-17.35 15.25-17.2 16.4-17.15L16.4-17.15Q16.4-17 17.7-17.68 19-18.35 20.05-19.78 21.1-21.2 21.1-23.6L21.1-23.6Q21.1-26.8 18.95-28.35 16.8-29.9 12.3-29.9L12.3-29.9Q11.8-29.9 11.63-29.68 11.45-29.45 11.4-28.75L11.4-28.75Q11.1-23.95 10.95-17.55L10.95-17.55ZM10.85-14.9L10.65-5.55Q10.65-3.65 11.95-2.85 13.25-2.05 16.35-2.05L16.35-2.05Q19.35-2.05 21.08-3.73 22.8-5.4 22.8-8.25L22.8-8.25Q22.8-10.95 21.1-12.68 19.4-14.4 16.05-15L16.05-15 10.85-14.9ZM51.4 0.6Q50.3 0.6 49.15-0.38 48-1.35 47.05-3.05L47.05-3.05 42.85-10.4 39.6-10.4 39.5-5.05Q39.5-3.6 39.7-2.98 39.9-2.35 40.47-2.15 41.05-1.95 42.45-1.9L42.45-1.9 42.55-1.75 42.15 0.15Q41.55 0.1 39.97 0.08 38.4 0.05 36.8 0.05L36.8 0.05Q35.25 0.05 34.1 0.1 32.95 0.15 32.55 0.2L32.55 0.2 32.9-1.85Q34.75-2.1 35.35-2.7 35.95-3.3 35.95-4.95L35.95-4.95 36-20.9Q36-22.1 35.7-22.53 35.4-22.95 34.55-22.95L34.55-22.95 33.15-22.9 33-23.1 33.3-25Q33.8-25 35.2-24.95 36.6-24.9 38-24.9L38-24.9Q39.45-24.9 41.1-24.98 42.75-25.05 43.35-25.05L43.35-25.05Q47.4-25.05 49.7-23.38 52-21.7 52-18.75L52-18.75Q52-16.45 50.45-14.5 48.9-12.55 46.1-11.3L46.1-11.3 50.35-4.9Q51.55-3.1 52.65-2.35 53.75-1.6 55.3-1.6L55.3-1.6 55.5-1.35 55.25 0.2 51.4 0.6ZM43.75-12.6Q44.7-13 45.42-13.38 46.15-13.75 47.05-14.95 47.95-16.15 47.95-18.05L47.95-18.05Q47.95-22.9 40.8-22.9L40.8-22.9Q40.4-22.9 40.25-22.73 40.1-22.55 40.1-22L40.1-22Q39.7-15.9 39.7-13L39.7-13 43.75-12.6ZM58.95 0.45L59.2-1.6Q61.09-1.95 61.75-2.63 62.4-3.3 62.4-4.95L62.4-4.95 62.45-20.85Q62.45-22.1 62.15-22.53 61.84-22.95 60.95-22.95L60.95-22.95 59.3-22.9 59.2-23.1 59.45-25Q59.75-25 61.07-24.95 62.4-24.9 64.55-24.9L64.55-24.9Q65.7-24.9 67.37-25.05 69.05-25.2 69.55-25.25L69.55-25.25 69.34-23.2Q67.7-23 67.15-22.58 66.59-22.15 66.5-21L66.5-21Q66.3-17 66.12-12.15 65.95-7.3 65.95-4.65L65.95-4.65Q65.95-3.05 66.3-2.5 66.65-1.95 67.7-1.95L67.7-1.95Q68.4-1.95 68.97-2 69.55-2.05 69.75-2.1L69.75-2.1 69.84-1.9 69.5 0.1Q68.9 0.1 67.25 0.05 65.59 0 63.95 0L63.95 0Q62.59 0 61.02 0.18 59.45 0.35 58.95 0.45L58.95 0.45ZM95.34-6.8L95.29-21.25Q95.29-22.9 93.94-22.9L93.94-22.9 92.44-22.9 92.34-23.1 92.69-25.05Q93.14-25 94.39-24.95 95.64-24.9 96.94-24.9L96.94-24.9Q98.04-24.9 99.42-25.03 100.79-25.15 101.19-25.2L101.19-25.2 100.99-23.15Q99.54-22.95 98.92-22.38 98.29-21.8 98.24-20.65L98.24-20.65 97.64 0.85 95.69 1.4Q90.94-5.55 86.09-12.2 81.24-18.85 81.24-18.75L81.24-18.75 80.99-18.75 80.84-3.6Q80.84-2.65 81.14-2.3 81.44-1.95 82.14-1.95L82.14-1.95 84.14-2 84.29-1.85 83.89 0.15Q83.44 0.1 82.12 0.05 80.79 0 79.34 0L79.34 0Q78.19 0 76.89 0.13 75.59 0.25 75.19 0.3L75.19 0.3 75.44-1.75Q76.69-1.9 77.29-2.48 77.89-3.05 77.94-4.2L77.94-4.2 78.49-20.7Q78.49-21.95 77.77-22.43 77.04-22.9 74.99-23.15L74.99-23.15 74.79-23.4 75.14-25.1Q75.54-25.05 76.67-24.98 77.79-24.9 78.94-24.9L78.94-24.9Q80.04-24.9 80.89-24.95 81.74-25 81.99-25.05L81.99-25.05Q86.04-19.1 90.57-12.9 95.09-6.7 95.09-6.8L95.09-6.8 95.34-6.8ZM117.04 0.45Q111.54 0.45 108.27-2.83 104.99-6.1 104.99-11.65L104.99-11.65Q104.99-15.75 106.79-18.85 108.59-21.95 111.87-23.65 115.14-25.35 119.44-25.35L119.44-25.35Q120.99-25.35 122.77-25.15 124.54-24.95 125.82-24.7 127.09-24.45 127.44-24.4L127.44-24.4 127.64-24.1Q127.59-23.85 127.37-22.93 127.14-22 126.92-20.53 126.69-19.05 126.59-17.4L126.59-17.4 124.14-17.2Q124.14-17.4 124.19-17.98 124.24-18.55 124.24-19.3L124.24-19.3Q124.24-21.05 122.89-21.83 121.54-22.6 118.49-22.6L118.49-22.6Q114.04-22.6 111.67-20.13 109.29-17.65 109.29-12.95L109.29-12.95Q109.29-7.9 111.64-4.98 113.99-2.05 117.99-2.05L117.99-2.05Q119.39-2.05 120.54-2.35 121.69-2.65 122.37-2.95 123.04-3.25 123.19-3.35L123.19-3.35 123.19-7.75Q123.19-9 122.77-9.4 122.34-9.8 121.04-9.8L121.04-9.8 118.39-9.8 118.29-10 118.69-12.2Q118.89-12.2 120.57-12.15 122.24-12.1 123.99-12.1L123.99-12.1Q125.14-12.1 126.27-12.18 127.39-12.25 127.69-12.3L127.69-12.3 127.89-11.2Q127.09-10.6 126.82-9.35 126.54-8.1 126.54-5.05L126.54-5.05Q126.54-2.8 126.79-1.65L126.79-1.65 126.54-1.25Q126.19-1.1 124.92-0.7 123.64-0.3 121.54 0.08 119.44 0.45 117.04 0.45L117.04 0.45ZM133.89 0.45L134.14-1.6Q136.04-1.95 136.69-2.63 137.34-3.3 137.34-4.95L137.34-4.95 137.39-20.85Q137.39-22.1 137.09-22.53 136.79-22.95 135.89-22.95L135.89-22.95 134.24-22.9 134.14-23.1 134.39-25Q134.69-25 136.01-24.95 137.34-24.9 139.49-24.9L139.49-24.9Q140.64-24.9 142.31-25.05 143.99-25.2 144.49-25.25L144.49-25.25 144.29-23.2Q142.64-23 142.09-22.58 141.54-22.15 141.44-21L141.44-21Q141.24-17 141.06-12.15 140.89-7.3 140.89-4.65L140.89-4.65Q140.89-3.05 141.24-2.5 141.59-1.95 142.64-1.95L142.64-1.95Q143.34-1.95 143.91-2 144.49-2.05 144.69-2.1L144.69-2.1 144.79-1.9 144.44 0.1Q143.84 0.1 142.19 0.05 140.54 0 138.89 0L138.89 0Q137.54 0 135.96 0.18 134.39 0.35 133.89 0.45L133.89 0.45ZM170.28-6.8L170.24-21.25Q170.24-22.9 168.88-22.9L168.88-22.9 167.38-22.9 167.28-23.1 167.63-25.05Q168.09-25 169.34-24.95 170.59-24.9 171.88-24.9L171.88-24.9Q172.99-24.9 174.36-25.03 175.74-25.15 176.13-25.2L176.13-25.2 175.94-23.15Q174.49-22.95 173.86-22.38 173.24-21.8 173.19-20.65L173.19-20.65 172.59 0.85 170.63 1.4Q165.88-5.55 161.03-12.2 156.19-18.85 156.19-18.75L156.19-18.75 155.94-18.75 155.78-3.6Q155.78-2.65 156.09-2.3 156.38-1.95 157.09-1.95L157.09-1.95 159.09-2 159.24-1.85 158.84 0.15Q158.38 0.1 157.06 0.05 155.74 0 154.28 0L154.28 0Q153.13 0 151.84 0.13 150.53 0.25 150.13 0.3L150.13 0.3 150.38-1.75Q151.63-1.9 152.24-2.48 152.84-3.05 152.88-4.2L152.88-4.2 153.44-20.7Q153.44-21.95 152.71-22.43 151.99-22.9 149.94-23.15L149.94-23.15 149.74-23.4 150.09-25.1Q150.49-25.05 151.61-24.98 152.74-24.9 153.88-24.9L153.88-24.9Q154.99-24.9 155.84-24.95 156.69-25 156.94-25.05L156.94-25.05Q160.99-19.1 165.51-12.9 170.03-6.7 170.03-6.8L170.03-6.8 170.28-6.8ZM191.98 0.45Q186.48 0.45 183.21-2.83 179.93-6.1 179.93-11.65L179.93-11.65Q179.93-15.75 181.73-18.85 183.53-21.95 186.81-23.65 190.08-25.35 194.38-25.35L194.38-25.35Q195.93-25.35 197.71-25.15 199.48-24.95 200.76-24.7 202.03-24.45 202.38-24.4L202.38-24.4 202.58-24.1Q202.53-23.85 202.31-22.93 202.08-22 201.86-20.53 201.63-19.05 201.53-17.4L201.53-17.4 199.08-17.2Q199.08-17.4 199.13-17.98 199.18-18.55 199.18-19.3L199.18-19.3Q199.18-21.05 197.83-21.83 196.48-22.6 193.43-22.6L193.43-22.6Q188.98-22.6 186.61-20.13 184.23-17.65 184.23-12.95L184.23-12.95Q184.23-7.9 186.58-4.98 188.93-2.05 192.93-2.05L192.93-2.05Q194.33-2.05 195.48-2.35 196.63-2.65 197.31-2.95 197.98-3.25 198.13-3.35L198.13-3.35 198.13-7.75Q198.13-9 197.71-9.4 197.28-9.8 195.98-9.8L195.98-9.8 193.33-9.8 193.23-10 193.63-12.2Q193.83-12.2 195.51-12.15 197.18-12.1 198.93-12.1L198.93-12.1Q200.08-12.1 201.21-12.18 202.33-12.25 202.63-12.3L202.63-12.3 202.83-11.2Q202.03-10.6 201.76-9.35 201.48-8.1 201.48-5.05L201.48-5.05Q201.48-2.8 201.73-1.65L201.73-1.65 201.48-1.25Q201.13-1.1 199.86-0.7 198.58-0.3 196.48 0.08 194.38 0.45 191.98 0.45L191.98 0.45ZM224.68 0Q223.13 0 221.33 0.25 219.53 0.5 218.98 0.6L218.98 0.6 219.28-1.7Q221.58-2.15 222.38-3.03 223.18-3.9 223.18-6L223.18-6 223.23-27Q223.23-28.6 222.85-29.15 222.48-29.7 221.38-29.7L221.38-29.7Q220.88-29.7 220.38-29.65 219.88-29.6 219.68-29.6L219.68-29.6 219.58-29.8 219.93-32Q220.53-31.95 222.18-31.9 223.83-31.85 225.48-31.85L225.48-31.85Q227.18-31.85 228.95-31.93 230.73-32 231.38-32.05L231.38-32.05Q236.13-32.05 238.68-30.08 241.23-28.1 241.23-24.45L241.23-24.45Q241.23-21.95 239.7-19.95 238.18-17.95 235.43-16.75L235.43-16.75Q239.08-15.95 241.13-13.95 243.18-11.95 243.18-9.15L243.18-9.15Q243.18-6.6 241.55-4.38 239.93-2.15 237.23-0.83 234.53 0.5 231.43 0.5L231.43 0.5Q230.08 0.5 228.33 0.25L228.33 0.25Q225.48 0 224.68 0L224.68 0ZM227.03-17.55Q227.78-17.5 229.55-17.35 231.33-17.2 232.48-17.15L232.48-17.15Q232.48-17 233.78-17.68 235.08-18.35 236.13-19.78 237.18-21.2 237.18-23.6L237.18-23.6Q237.18-26.8 235.03-28.35 232.88-29.9 228.38-29.9L228.38-29.9Q227.88-29.9 227.7-29.68 227.53-29.45 227.48-28.75L227.48-28.75Q227.18-23.95 227.03-17.55L227.03-17.55ZM226.93-14.9L226.73-5.55Q226.73-3.65 228.03-2.85 229.33-2.05 232.43-2.05L232.43-2.05Q235.43-2.05 237.15-3.73 238.88-5.4 238.88-8.25L238.88-8.25Q238.88-10.95 237.18-12.68 235.48-14.4 232.13-15L232.13-15 226.93-14.9ZM260.13 0.35L259.98 0.1 260.13-1.7Q262.23-1.85 262.95-2.15 263.68-2.45 263.68-3.15L263.68-3.15Q263.68-3.95 263.32-4.85L263.32-4.85 262.13-8.7Q261.13-8.75 257.98-8.75L257.98-8.75Q256.53-8.75 253.68-8.45L253.68-8.45 252.28-4.75Q251.93-3.6 251.93-3.35L251.93-3.35Q251.93-2.55 252.48-2.2 253.03-1.85 254.28-1.85L254.28-1.85 256.43-1.85 256.57-1.65 256.28 0.25Q255.78 0.2 254 0.1 252.23 0 250.53 0L250.53 0Q248.93 0 247.65 0.05 246.38 0.1 245.93 0.1L245.93 0.1 246.23-1.95Q247.33-2.1 247.98-2.73 248.63-3.35 249.28-4.85L249.28-4.85 257.13-24.7 260.68-25.35 261.03-25.3Q261.03-25.1 263.3-17.4 265.57-9.7 267.38-4.65L267.38-4.65Q267.88-3.2 268.65-2.63 269.43-2.05 271.13-1.9L271.13-1.9 271.23-1.7 270.98 0.1Q270.48 0.1 269.13 0.05 267.78 0 266.43 0L266.43 0Q264.38 0 262.53 0.15 260.68 0.3 260.13 0.35L260.13 0.35ZM254.48-10.8L257.88-10.8Q259.63-10.8 261.53-11L261.53-11 258.48-20.7 258.13-20.7 254.48-10.8ZM294.52-6.8L294.47-21.25Q294.47-22.9 293.12-22.9L293.12-22.9 291.62-22.9 291.52-23.1 291.87-25.05Q292.32-25 293.57-24.95 294.82-24.9 296.12-24.9L296.12-24.9Q297.22-24.9 298.6-25.03 299.97-25.15 300.37-25.2L300.37-25.2 300.17-23.15Q298.72-22.95 298.1-22.38 297.47-21.8 297.42-20.65L297.42-20.65 296.82 0.85 294.87 1.4Q290.12-5.55 285.27-12.2 280.42-18.85 280.42-18.75L280.42-18.75 280.17-18.75 280.02-3.6Q280.02-2.65 280.32-2.3 280.62-1.95 281.32-1.95L281.32-1.95 283.32-2 283.47-1.85 283.07 0.15Q282.62 0.1 281.3 0.05 279.97 0 278.52 0L278.52 0Q277.37 0 276.07 0.13 274.77 0.25 274.37 0.3L274.37 0.3 274.62-1.75Q275.87-1.9 276.47-2.48 277.07-3.05 277.12-4.2L277.12-4.2 277.67-20.7Q277.67-21.95 276.95-22.43 276.22-22.9 274.17-23.15L274.17-23.15 273.97-23.4 274.32-25.1Q274.72-25.05 275.85-24.98 276.97-24.9 278.12-24.9L278.12-24.9Q279.22-24.9 280.07-24.95 280.92-25 281.17-25.05L281.17-25.05Q285.22-19.1 289.75-12.9 294.27-6.7 294.27-6.8L294.27-6.8 294.52-6.8ZM316.22 0.45Q310.72 0.45 307.44-2.83 304.17-6.1 304.17-11.65L304.17-11.65Q304.17-15.75 305.97-18.85 307.77-21.95 311.05-23.65 314.32-25.35 318.62-25.35L318.62-25.35Q320.17-25.35 321.94-25.15 323.72-24.95 325-24.7 326.27-24.45 326.62-24.4L326.62-24.4 326.82-24.1Q326.77-23.85 326.55-22.93 326.32-22 326.1-20.53 325.87-19.05 325.77-17.4L325.77-17.4 323.32-17.2Q323.32-17.4 323.37-17.98 323.42-18.55 323.42-19.3L323.42-19.3Q323.42-21.05 322.07-21.83 320.72-22.6 317.67-22.6L317.67-22.6Q313.22-22.6 310.85-20.13 308.47-17.65 308.47-12.95L308.47-12.95Q308.47-7.9 310.82-4.98 313.17-2.05 317.17-2.05L317.17-2.05Q318.57-2.05 319.72-2.35 320.87-2.65 321.55-2.95 322.22-3.25 322.37-3.35L322.37-3.35 322.37-7.75Q322.37-9 321.94-9.4 321.52-9.8 320.22-9.8L320.22-9.8 317.57-9.8 317.47-10 317.87-12.2Q318.07-12.2 319.75-12.15 321.42-12.1 323.17-12.1L323.17-12.1Q324.32-12.1 325.44-12.18 326.57-12.25 326.87-12.3L326.87-12.3 327.07-11.2Q326.27-10.6 326-9.35 325.72-8.1 325.72-5.05L325.72-5.05Q325.72-2.8 325.97-1.65L325.97-1.65 325.72-1.25Q325.37-1.1 324.1-0.7 322.82-0.3 320.72 0.08 318.62 0.45 316.22 0.45L316.22 0.45ZM344.62 0.35L344.47 0.1 344.62-1.7Q346.72-1.85 347.44-2.15 348.17-2.45 348.17-3.15L348.17-3.15Q348.17-3.95 347.82-4.85L347.82-4.85 346.62-8.7Q345.62-8.75 342.47-8.75L342.47-8.75Q341.02-8.75 338.17-8.45L338.17-8.45 336.77-4.75Q336.42-3.6 336.42-3.35L336.42-3.35Q336.42-2.55 336.97-2.2 337.52-1.85 338.77-1.85L338.77-1.85 340.92-1.85 341.07-1.65 340.77 0.25Q340.27 0.2 338.49 0.1 336.72 0 335.02 0L335.02 0Q333.42 0 332.14 0.05 330.87 0.1 330.42 0.1L330.42 0.1 330.72-1.95Q331.82-2.1 332.47-2.73 333.12-3.35 333.77-4.85L333.77-4.85 341.62-24.7 345.17-25.35 345.52-25.3Q345.52-25.1 347.79-17.4 350.07-9.7 351.87-4.65L351.87-4.65Q352.37-3.2 353.14-2.63 353.92-2.05 355.62-1.9L355.62-1.9 355.72-1.7 355.47 0.1Q354.97 0.1 353.62 0.05 352.27 0 350.92 0L350.92 0Q348.87 0 347.02 0.15 345.17 0.3 344.62 0.35L344.62 0.35ZM338.97-10.8L342.37-10.8Q344.12-10.8 346.02-11L346.02-11 342.97-20.7 342.62-20.7 338.97-10.8ZM358.97 0.4L359.27-1.7Q360.87-1.95 361.44-2.63 362.02-3.3 362.02-5L362.02-5 362.06-20.85Q362.06-22.1 361.77-22.53 361.47-22.95 360.56-22.95L360.56-22.95 359.22-22.9 359.06-23.1 359.37-25Q359.62-25 360.87-24.95 362.12-24.9 364.22-24.9L364.22-24.9Q365.31-24.9 366.94-25.05 368.56-25.2 369.06-25.25L369.06-25.25 368.87-23.15Q367.52-23 366.97-22.68 366.42-22.35 366.31-21.85 366.22-21.35 366.06-19.8L366.06-19.8Q365.56-13.1 365.56-4.95L365.56-4.95Q365.56-3.7 365.79-3.13 366.02-2.55 366.69-2.35 367.37-2.15 368.81-2.15L368.81-2.15Q371.22-2.15 372.34-2.55 373.47-2.95 374.04-4.13 374.62-5.3 375.06-7.85L375.06-7.85 377.27-8.1 377.42-7.8Q377.31-7.15 376.94-4.83 376.56-2.5 376.27 0.05L376.27 0.05 376.02 0.35Q374.87 0.3 371.14 0.15 367.42 0 364.87 0L364.87 0Q362.87 0 361.14 0.18 359.42 0.35 358.97 0.4L358.97 0.4ZM391.56 0.45Q388.16 0.45 385.54-1.05 382.91-2.55 381.49-5.3 380.06-8.05 380.06-11.65L380.06-11.65Q380.06-15.55 381.84-18.68 383.61-21.8 386.69-23.58 389.76-25.35 393.56-25.35L393.56-25.35Q397.01-25.35 399.66-23.85 402.31-22.35 403.76-19.63 405.21-16.9 405.21-13.3L405.21-13.3Q405.21-9.4 403.44-6.28 401.66-3.15 398.54-1.35 395.41 0.45 391.56 0.45L391.56 0.45ZM392.76-1.95Q396.41-1.95 398.66-4.58 400.91-7.2 400.91-11.55L400.91-11.55Q400.91-14.85 399.84-17.35 398.76-19.85 396.79-21.2 394.81-22.55 392.21-22.55L392.21-22.55Q388.66-22.55 386.49-19.95 384.31-17.35 384.31-13L384.31-13Q384.31-9.7 385.36-7.2 386.41-4.7 388.34-3.33 390.26-1.95 392.76-1.95L392.76-1.95ZM428.81 0.6Q427.71 0.6 426.56-0.38 425.41-1.35 424.46-3.05L424.46-3.05 420.26-10.4 417.01-10.4 416.91-5.05Q416.91-3.6 417.11-2.98 417.31-2.35 417.89-2.15 418.46-1.95 419.86-1.9L419.86-1.9 419.96-1.75 419.56 0.15Q418.96 0.1 417.39 0.08 415.81 0.05 414.21 0.05L414.21 0.05Q412.66 0.05 411.51 0.1 410.36 0.15 409.96 0.2L409.96 0.2 410.31-1.85Q412.16-2.1 412.76-2.7 413.36-3.3 413.36-4.95L413.36-4.95 413.41-20.9Q413.41-22.1 413.11-22.53 412.81-22.95 411.96-22.95L411.96-22.95 410.56-22.9 410.41-23.1 410.71-25Q411.21-25 412.61-24.95 414.01-24.9 415.41-24.9L415.41-24.9Q416.86-24.9 418.51-24.98 420.16-25.05 420.76-25.05L420.76-25.05Q424.81-25.05 427.11-23.38 429.41-21.7 429.41-18.75L429.41-18.75Q429.41-16.45 427.86-14.5 426.31-12.55 423.51-11.3L423.51-11.3 427.76-4.9Q428.96-3.1 430.06-2.35 431.16-1.6 432.71-1.6L432.71-1.6 432.91-1.35 432.66 0.2 428.81 0.6ZM421.16-12.6Q422.11-13 422.84-13.38 423.56-13.75 424.46-14.95 425.36-16.15 425.36-18.05L425.36-18.05Q425.36-22.9 418.21-22.9L418.21-22.9Q417.81-22.9 417.66-22.73 417.51-22.55 417.51-22L417.51-22Q417.11-15.9 417.11-13L417.11-13 421.16-12.6ZM436.41 0.4L436.66-1.7Q438.51-1.9 439.16-2.6 439.81-3.3 439.81-5L439.81-5 439.86-20.85Q439.86-22.1 439.56-22.53 439.26-22.95 438.36-22.95L438.36-22.95 437.01-22.9 436.91-23.1 437.21-25Q437.81-25 439.56-24.95 441.31-24.9 443.36-24.9L443.36-24.9Q451.71-24.9 455.71-25.35L455.71-25.35 455.86-25.1Q455.76-24.55 455.41-22.6 455.06-20.65 454.91-18.4L454.91-18.4 452.51-18.2Q452.51-18.4 452.56-18.88 452.61-19.35 452.61-19.85L452.61-19.85Q452.61-21.15 452.23-21.68 451.86-22.2 450.68-22.38 449.51-22.55 446.61-22.55L446.61-22.55Q445.26-22.55 444.76-22.48 444.26-22.4 444.11-22.13 443.96-21.85 443.91-21.1L443.91-21.1 443.61-14 447.71-13.95Q448.61-13.95 450.36-14.13 452.11-14.3 452.66-14.35L452.66-14.35 452.86-14.1 452.26-11.5Q451.71-11.5 450.08-11.55 448.46-11.6 446.66-11.6L446.66-11.6Q445.26-11.6 443.51-11.35L443.51-11.35Q443.36-7.55 443.36-4.5L443.36-4.5Q443.36-3.35 443.53-2.9 443.71-2.45 444.33-2.3 444.96-2.15 446.41-2.15L446.41-2.15Q449.66-2.15 451.06-2.45 452.46-2.75 453.03-3.68 453.61-4.6 453.96-6.85L453.96-6.85 456.16-7.05 456.36-6.8Q456.21-6.25 455.83-4.23 455.46-2.2 455.26 0L455.26 0 454.96 0.25Q453.61 0.2 449.36 0.1 445.11 0 442.46 0L442.46 0Q440.41 0 438.66 0.18 436.91 0.35 436.41 0.4L436.41 0.4ZM475.25 0.2L475.65-1.95Q478.15-2.15 479.1-2.58 480.05-3 480.35-4.13 480.65-5.25 480.65-8.1L480.65-8.1 480.65-29.9Q476.4-29.75 474.88-29.43 473.35-29.1 472.8-27.98 472.25-26.85 471.8-23.6L471.8-23.6 469.45-23.4Q470.05-28.15 470.2-32.05L470.2-32.05 470.65-32.45 474.8-31.9 490.3-31.9 494.55-32.45 495-32.05Q495.15-27.95 495.75-23.6L495.75-23.6 493.4-23.4Q492.85-26.7 492.3-27.85 491.75-29 490.35-29.35 488.95-29.7 484.95-29.9L484.95-29.9Q484.65-26.9 484.4-19.3 484.15-11.7 484.15-5.6L484.15-5.6Q484.15-3.75 484.8-2.98 485.45-2.2 487-2.2L487-2.2Q488.5-2.2 489.75-2.35L489.75-2.35 489.9-2.15 489.45 0.15 487.8 0.1 482.1 0Q479.35 0 475.25 0.2L475.25 0.2ZM509.25 0.45Q505.85 0.45 503.22-1.05 500.6-2.55 499.18-5.3 497.75-8.05 497.75-11.65L497.75-11.65Q497.75-15.55 499.52-18.68 501.3-21.8 504.38-23.58 507.45-25.35 511.25-25.35L511.25-25.35Q514.7-25.35 517.35-23.85 520-22.35 521.45-19.63 522.9-16.9 522.9-13.3L522.9-13.3Q522.9-9.4 521.13-6.28 519.35-3.15 516.23-1.35 513.1 0.45 509.25 0.45L509.25 0.45ZM510.45-1.95Q514.1-1.95 516.35-4.58 518.6-7.2 518.6-11.55L518.6-11.55Q518.6-14.85 517.52-17.35 516.45-19.85 514.48-21.2 512.5-22.55 509.9-22.55L509.9-22.55Q506.35-22.55 504.18-19.95 502-17.35 502-13L502-13Q502-9.7 503.05-7.2 504.1-4.7 506.02-3.33 507.95-1.95 510.45-1.95L510.45-1.95ZM539.05 0.45Q533.55 0.45 530.27-2.83 527-6.1 527-11.65L527-11.65Q527-15.75 528.8-18.85 530.6-21.95 533.87-23.65 537.15-25.35 541.45-25.35L541.45-25.35Q543-25.35 544.77-25.15 546.55-24.95 547.82-24.7 549.1-24.45 549.45-24.4L549.45-24.4 549.65-24.1Q549.6-23.85 549.37-22.93 549.15-22 548.92-20.53 548.7-19.05 548.6-17.4L548.6-17.4 546.15-17.2Q546.15-17.4 546.2-17.98 546.25-18.55 546.25-19.3L546.25-19.3Q546.25-21.05 544.9-21.83 543.55-22.6 540.5-22.6L540.5-22.6Q536.05-22.6 533.67-20.13 531.3-17.65 531.3-12.95L531.3-12.95Q531.3-7.9 533.65-4.98 536-2.05 540-2.05L540-2.05Q541.4-2.05 542.55-2.35 543.7-2.65 544.37-2.95 545.05-3.25 545.2-3.35L545.2-3.35 545.2-7.75Q545.2-9 544.77-9.4 544.35-9.8 543.05-9.8L543.05-9.8 540.4-9.8 540.3-10 540.7-12.2Q540.9-12.2 542.57-12.15 544.25-12.1 546-12.1L546-12.1Q547.15-12.1 548.27-12.18 549.4-12.25 549.7-12.3L549.7-12.3 549.9-11.2Q549.1-10.6 548.82-9.35 548.55-8.1 548.55-5.05L548.55-5.05Q548.55-2.8 548.8-1.65L548.8-1.65 548.55-1.25Q548.2-1.1 546.92-0.7 545.65-0.3 543.55 0.08 541.45 0.45 539.05 0.45L539.05 0.45ZM555.94 0.4L556.19-1.7Q558.04-1.9 558.69-2.6 559.34-3.3 559.34-5L559.34-5 559.39-20.85Q559.39-22.1 559.09-22.53 558.79-22.95 557.89-22.95L557.89-22.95 556.54-22.9 556.44-23.1 556.74-25Q557.34-25 559.09-24.95 560.84-24.9 562.89-24.9L562.89-24.9Q571.24-24.9 575.24-25.35L575.24-25.35 575.39-25.1Q575.29-24.55 574.94-22.6 574.59-20.65 574.44-18.4L574.44-18.4 572.04-18.2Q572.04-18.4 572.09-18.88 572.14-19.35 572.14-19.85L572.14-19.85Q572.14-21.15 571.77-21.68 571.39-22.2 570.22-22.38 569.04-22.55 566.14-22.55L566.14-22.55Q564.79-22.55 564.29-22.48 563.79-22.4 563.64-22.13 563.49-21.85 563.44-21.1L563.44-21.1 563.14-14 567.24-13.95Q568.14-13.95 569.89-14.13 571.64-14.3 572.19-14.35L572.19-14.35 572.39-14.1 571.79-11.5Q571.24-11.5 569.62-11.55 567.99-11.6 566.19-11.6L566.19-11.6Q564.79-11.6 563.04-11.35L563.04-11.35Q562.89-7.55 562.89-4.5L562.89-4.5Q562.89-3.35 563.07-2.9 563.24-2.45 563.87-2.3 564.49-2.15 565.94-2.15L565.94-2.15Q569.19-2.15 570.59-2.45 571.99-2.75 572.57-3.68 573.14-4.6 573.49-6.85L573.49-6.85 575.69-7.05 575.89-6.8Q575.74-6.25 575.37-4.23 574.99-2.2 574.79 0L574.79 0 574.49 0.25Q573.14 0.2 568.89 0.1 564.64 0 561.99 0L561.99 0Q559.94 0 558.19 0.18 556.44 0.35 555.94 0.4L555.94 0.4ZM584.14 0.2L584.49-1.8Q586.49-1.95 587.32-2.3 588.14-2.65 588.37-3.48 588.59-4.3 588.59-6.35L588.59-6.35 588.59-22.9Q585.44-22.8 584.34-22.55 583.24-22.3 582.72-21.38 582.19-20.45 581.84-17.9L581.84-17.9 579.49-17.75Q579.59-18.4 579.82-20.63 580.04-22.85 580.09-25L580.09-25 580.49-25.35 584.04-24.95 596.79-24.95 600.44-25.35 600.84-25Q600.89-22.8 601.09-20.65 601.29-18.5 601.39-17.9L601.39-17.9 599.09-17.75Q598.69-20.35 598.17-21.33 597.64-22.3 596.62-22.55 595.59-22.8 592.69-22.9L592.69-22.9Q592.44-20.5 592.24-14.93 592.04-9.35 592.04-4.65L592.04-4.65Q592.04-3.2 592.59-2.6 593.14-2 594.39-2L594.39-2Q595.29-2 595.87-2.05 596.44-2.1 596.59-2.1L596.59-2.1 596.74-1.95 596.39 0.15Q595.69 0.15 593.79 0.08 591.89 0 590.09 0L590.09 0Q588.29 0 586.54 0.08 584.79 0.15 584.14 0.2L584.14 0.2ZM605.04 0.45L605.29-1.6Q607.14-1.95 607.79-2.63 608.44-3.3 608.44-4.95L608.44-4.95 608.49-20.85Q608.49-22.1 608.19-22.53 607.89-22.95 606.99-22.95L606.99-22.95 605.64-22.9 605.49-23.1 605.79-25Q606.29-25 607.66-24.95 609.04-24.9 610.44-24.9L610.44-24.9Q611.59-24.9 613.19-25.05 614.79-25.2 615.29-25.25L615.29-25.25 615.09-23.2Q613.89-23 613.39-22.73 612.89-22.45 612.71-21.88 612.54-21.3 612.44-19.9L612.44-19.9 612.19-13.85 618.69-13.8Q621.34-13.8 624.44-14.15L624.44-14.15 624.49-20.85Q624.49-22.1 624.19-22.53 623.89-22.95 622.99-22.95L622.99-22.95 621.59-22.9 621.49-23.1 621.79-25Q622.24-24.95 623.54-24.93 624.84-24.9 626.09-24.9L626.09-24.9Q627.29-24.9 629.01-25.05 630.74-25.2 631.29-25.25L631.29-25.25 631.14-23.2Q629.59-23 629.09-22.58 628.59-22.15 628.54-21L628.54-21Q628.34-17.05 628.16-12.18 627.99-7.3 627.99-4.65L627.99-4.65Q627.99-3.05 628.34-2.53 628.69-2 629.74-2L629.74-2Q630.34-2 630.84-2.05 631.34-2.1 631.49-2.1L631.49-2.1 631.64-1.9 631.24 0.1Q630.69 0.1 629.16 0.05 627.64 0 625.99 0L625.99 0 620.99 0.05 621.39-1.95Q622.69-1.95 623.31-2.27 623.94-2.6 624.19-3.43 624.44-4.25 624.44-5.9L624.44-5.9 624.44-11.5 618.69-11.55Q617.89-11.55 615.44-11.38 612.99-11.2 612.14-11.15L612.14-11.15 611.99-4.65Q611.99-3.05 612.34-2.5 612.69-1.95 613.74-1.95L613.74-1.95Q614.34-1.95 614.84-2 615.34-2.05 615.49-2.1L615.49-2.1 615.59-1.9 615.24 0.1Q614.84 0.1 613.71 0.05 612.59 0 611.34 0L611.34 0Q609.49 0 607.29 0.15 605.09 0.3 605.04 0.45L605.04 0.45ZM636.99 0.4L637.24-1.7Q639.09-1.9 639.74-2.6 640.39-3.3 640.39-5L640.39-5 640.44-20.85Q640.44-22.1 640.14-22.53 639.84-22.95 638.94-22.95L638.94-22.95 637.59-22.9 637.49-23.1 637.79-25Q638.39-25 640.14-24.95 641.89-24.9 643.94-24.9L643.94-24.9Q652.29-24.9 656.29-25.35L656.29-25.35 656.44-25.1Q656.34-24.55 655.99-22.6 655.64-20.65 655.49-18.4L655.49-18.4 653.09-18.2Q653.09-18.4 653.14-18.88 653.19-19.35 653.19-19.85L653.19-19.85Q653.19-21.15 652.81-21.68 652.44-22.2 651.26-22.38 650.09-22.55 647.19-22.55L647.19-22.55Q645.84-22.55 645.34-22.48 644.84-22.4 644.69-22.13 644.54-21.85 644.49-21.1L644.49-21.1 644.19-14 648.29-13.95Q649.19-13.95 650.94-14.13 652.69-14.3 653.24-14.35L653.24-14.35 653.44-14.1 652.84-11.5Q652.29-11.5 650.66-11.55 649.04-11.6 647.24-11.6L647.24-11.6Q645.84-11.6 644.09-11.35L644.09-11.35Q643.94-7.55 643.94-4.5L643.94-4.5Q643.94-3.35 644.11-2.9 644.29-2.45 644.91-2.3 645.54-2.15 646.99-2.15L646.99-2.15Q650.24-2.15 651.64-2.45 653.04-2.75 653.61-3.68 654.19-4.6 654.54-6.85L654.54-6.85 656.74-7.05 656.94-6.8Q656.79-6.25 656.41-4.23 656.04-2.2 655.84 0L655.84 0 655.54 0.25Q654.19 0.2 649.94 0.1 645.69 0 643.04 0L643.04 0Q640.99 0 639.24 0.18 637.49 0.35 636.99 0.4L636.99 0.4ZM681.23 0.6Q680.13 0.6 678.98-0.38 677.83-1.35 676.88-3.05L676.88-3.05 672.68-10.4 669.43-10.4 669.33-5.05Q669.33-3.6 669.53-2.98 669.73-2.35 670.31-2.15 670.88-1.95 672.28-1.9L672.28-1.9 672.38-1.75 671.98 0.15Q671.38 0.1 669.81 0.08 668.23 0.05 666.63 0.05L666.63 0.05Q665.08 0.05 663.93 0.1 662.78 0.15 662.38 0.2L662.38 0.2 662.73-1.85Q664.58-2.1 665.18-2.7 665.78-3.3 665.78-4.95L665.78-4.95 665.83-20.9Q665.83-22.1 665.53-22.53 665.23-22.95 664.38-22.95L664.38-22.95 662.98-22.9 662.83-23.1 663.13-25Q663.63-25 665.03-24.95 666.43-24.9 667.83-24.9L667.83-24.9Q669.28-24.9 670.93-24.98 672.58-25.05 673.18-25.05L673.18-25.05Q677.23-25.05 679.53-23.38 681.83-21.7 681.83-18.75L681.83-18.75Q681.83-16.45 680.28-14.5 678.73-12.55 675.93-11.3L675.93-11.3 680.18-4.9Q681.38-3.1 682.48-2.35 683.58-1.6 685.13-1.6L685.13-1.6 685.33-1.35 685.08 0.2 681.23 0.6ZM673.58-12.6Q674.53-13 675.26-13.38 675.98-13.75 676.88-14.95 677.78-16.15 677.78-18.05L677.78-18.05Q677.78-22.9 670.63-22.9L670.63-22.9Q670.23-22.9 670.08-22.73 669.93-22.55 669.93-22L669.93-22Q669.53-15.9 669.53-13L669.53-13 673.58-12.6ZM690.18 7.85L689.28 7.1 689.28 6.6Q691.03 5.4 692.13 3.75 693.23 2.1 693.23 0.55L693.23 0.55Q693.23-0.45 692.78-1.38 692.33-2.3 691.63-2.95L691.63-2.95 691.73-3.65Q693.43-4.95 694.63-4.95L694.63-4.95Q695.73-4.95 696.46-3.93 697.18-2.9 697.18-1.05L697.18-1.05Q697.18 1.55 695.08 3.88 692.98 6.2 690.18 7.85L690.18 7.85ZM725.58 0.6Q721.53 0.6 718.38-1.35 715.23-3.3 713.48-6.83 711.73-10.35 711.73-14.85L711.73-14.85Q711.73-19.75 713.9-23.78 716.08-27.8 719.85-30.13 723.63-32.45 728.18-32.45L728.18-32.45Q732.33-32.45 735.53-30.5 738.73-28.55 740.53-25.05 742.33-21.55 742.33-17.05L742.33-17.05Q742.33-12.15 740.1-8.1 737.88-4.05 734.05-1.73 730.23 0.6 725.58 0.6L725.58 0.6ZM727.13-1.95Q730.28-1.95 732.73-3.6 735.18-5.25 736.53-8.2 737.88-11.15 737.88-14.95L737.88-14.95Q737.88-19.2 736.43-22.48 734.98-25.75 732.4-27.6 729.83-29.45 726.48-29.45L726.48-29.45Q723.43-29.45 721.05-27.8 718.68-26.15 717.35-23.2 716.03-20.25 716.03-16.45L716.03-16.45Q716.03-12.2 717.43-8.93 718.83-5.65 721.35-3.8 723.88-1.95 727.13-1.95L727.13-1.95ZM767.42-6.8L767.37-21.25Q767.37-22.9 766.02-22.9L766.02-22.9 764.52-22.9 764.42-23.1 764.77-25.05Q765.22-25 766.47-24.95 767.72-24.9 769.02-24.9L769.02-24.9Q770.12-24.9 771.5-25.03 772.87-25.15 773.27-25.2L773.27-25.2 773.07-23.15Q771.62-22.95 771-22.38 770.37-21.8 770.32-20.65L770.32-20.65 769.72 0.85 767.77 1.4Q763.02-5.55 758.17-12.2 753.32-18.85 753.32-18.75L753.32-18.75 753.07-18.75 752.92-3.6Q752.92-2.65 753.22-2.3 753.52-1.95 754.22-1.95L754.22-1.95 756.22-2 756.37-1.85 755.97 0.15Q755.52 0.1 754.2 0.05 752.87 0 751.42 0L751.42 0Q750.27 0 748.97 0.13 747.67 0.25 747.27 0.3L747.27 0.3 747.52-1.75Q748.77-1.9 749.37-2.48 749.97-3.05 750.02-4.2L750.02-4.2 750.57-20.7Q750.57-21.95 749.85-22.43 749.12-22.9 747.07-23.15L747.07-23.15 746.87-23.4 747.22-25.1Q747.62-25.05 748.75-24.98 749.87-24.9 751.02-24.9L751.02-24.9Q752.12-24.9 752.97-24.95 753.82-25 754.07-25.05L754.07-25.05Q758.12-19.1 762.65-12.9 767.17-6.7 767.17-6.8L767.17-6.8 767.42-6.8ZM777.72 0.4L777.97-1.7Q779.82-1.9 780.47-2.6 781.12-3.3 781.12-5L781.12-5 781.17-20.85Q781.17-22.1 780.87-22.53 780.57-22.95 779.67-22.95L779.67-22.95 778.32-22.9 778.22-23.1 778.52-25Q779.12-25 780.87-24.95 782.62-24.9 784.67-24.9L784.67-24.9Q793.02-24.9 797.02-25.35L797.02-25.35 797.17-25.1Q797.07-24.55 796.72-22.6 796.37-20.65 796.22-18.4L796.22-18.4 793.82-18.2Q793.82-18.4 793.87-18.88 793.92-19.35 793.92-19.85L793.92-19.85Q793.92-21.15 793.55-21.68 793.17-22.2 792-22.38 790.82-22.55 787.92-22.55L787.92-22.55Q786.57-22.55 786.07-22.48 785.57-22.4 785.42-22.13 785.27-21.85 785.22-21.1L785.22-21.1 784.92-14 789.02-13.95Q789.92-13.95 791.67-14.13 793.42-14.3 793.97-14.35L793.97-14.35 794.17-14.1 793.57-11.5Q793.02-11.5 791.4-11.55 789.77-11.6 787.97-11.6L787.97-11.6Q786.57-11.6 784.82-11.35L784.82-11.35Q784.67-7.55 784.67-4.5L784.67-4.5Q784.67-3.35 784.85-2.9 785.02-2.45 785.65-2.3 786.27-2.15 787.72-2.15L787.72-2.15Q790.97-2.15 792.37-2.45 793.77-2.75 794.35-3.68 794.92-4.6 795.27-6.85L795.27-6.85 797.47-7.05 797.67-6.8Q797.52-6.25 797.15-4.23 796.77-2.2 796.57 0L796.57 0 796.27 0.25Q794.92 0.2 790.67 0.1 786.42 0 783.77 0L783.77 0Q781.72 0 779.97 0.18 778.22 0.35 777.72 0.4L777.72 0.4ZM826.92 0.6Q822.52 0.6 819.22-1.3 815.92-3.2 814.12-6.68 812.32-10.15 812.32-14.85L812.32-14.85Q812.32-20 814.52-24 816.72-28 820.72-30.23 824.72-32.45 829.87-32.45L829.87-32.45Q831.72-32.45 833.87-32.18 836.02-31.9 837.57-31.63 839.12-31.35 839.57-31.25L839.57-31.25 839.77-30.95Q839.67-30.65 839.42-29.5 839.17-28.35 838.89-26.5 838.62-24.65 838.47-22.6L838.47-22.6 836.12-22.4Q836.17-22.65 836.22-23.38 836.27-24.1 836.27-25.1L836.27-25.1Q836.27-27.4 834.49-28.45 832.72-29.5 828.72-29.5L828.72-29.5Q823.02-29.5 819.84-26.08 816.67-22.65 816.67-16.45L816.67-16.45Q816.67-12.1 818.07-8.8 819.47-5.5 822.07-3.7 824.67-1.9 828.07-1.9L828.07-1.9Q829.87-1.9 831.37-2.33 832.87-2.75 833.89-3.25 834.92-3.75 834.92-3.8L834.92-3.8 834.92-9.9Q834.92-11.6 834.39-12.1 833.87-12.6 832.17-12.6L832.17-12.6 828.72-12.6 828.62-12.8 829.07-15.3Q829.67-15.25 831.62-15.18 833.57-15.1 835.42-15.1L835.42-15.1Q836.77-15.1 838.07-15.2 839.37-15.3 839.72-15.35L839.72-15.35 839.92-14.25Q839.02-13.5 838.69-11.88 838.37-10.25 838.37-6.55L838.37-6.55Q838.37-3.65 838.72-2.15L838.72-2.15 838.42-1.7Q838.42-1.65 836.64-1.03 834.87-0.4 832.29 0.1 829.72 0.6 826.92 0.6L826.92 0.6ZM846.31 0.45L846.56-1.6Q848.46-1.95 849.11-2.63 849.76-3.3 849.76-4.95L849.76-4.95 849.81-20.85Q849.81-22.1 849.51-22.53 849.21-22.95 848.31-22.95L848.31-22.95 846.66-22.9 846.56-23.1 846.81-25Q847.11-25 848.44-24.95 849.76-24.9 851.91-24.9L851.91-24.9Q853.06-24.9 854.74-25.05 856.41-25.2 856.91-25.25L856.91-25.25 856.71-23.2Q855.06-23 854.51-22.58 853.96-22.15 853.86-21L853.86-21Q853.66-17 853.49-12.15 853.31-7.3 853.31-4.65L853.31-4.65Q853.31-3.05 853.66-2.5 854.01-1.95 855.06-1.95L855.06-1.95Q855.76-1.95 856.34-2 856.91-2.05 857.11-2.1L857.11-2.1 857.21-1.9 856.86 0.1Q856.26 0.1 854.61 0.05 852.96 0 851.31 0L851.31 0Q849.96 0 848.39 0.18 846.81 0.35 846.31 0.45L846.31 0.45ZM873.71 0.45Q868.21 0.45 864.94-2.83 861.66-6.1 861.66-11.65L861.66-11.65Q861.66-15.75 863.46-18.85 865.26-21.95 868.54-23.65 871.81-25.35 876.11-25.35L876.11-25.35Q877.66-25.35 879.44-25.15 881.21-24.95 882.49-24.7 883.76-24.45 884.11-24.4L884.11-24.4 884.31-24.1Q884.26-23.85 884.04-22.93 883.81-22 883.59-20.53 883.36-19.05 883.26-17.4L883.26-17.4 880.81-17.2Q880.81-17.4 880.86-17.98 880.91-18.55 880.91-19.3L880.91-19.3Q880.91-21.05 879.56-21.83 878.21-22.6 875.16-22.6L875.16-22.6Q870.71-22.6 868.34-20.13 865.96-17.65 865.96-12.95L865.96-12.95Q865.96-7.9 868.31-4.98 870.66-2.05 874.66-2.05L874.66-2.05Q876.06-2.05 877.21-2.35 878.36-2.65 879.04-2.95 879.71-3.25 879.86-3.35L879.86-3.35 879.86-7.75Q879.86-9 879.44-9.4 879.01-9.8 877.71-9.8L877.71-9.8 875.06-9.8 874.96-10 875.36-12.2Q875.56-12.2 877.24-12.15 878.91-12.1 880.66-12.1L880.66-12.1Q881.81-12.1 882.94-12.18 884.06-12.25 884.36-12.3L884.36-12.3 884.56-11.2Q883.76-10.6 883.49-9.35 883.21-8.1 883.21-5.05L883.21-5.05Q883.21-2.8 883.46-1.65L883.46-1.65 883.21-1.25Q882.86-1.1 881.59-0.7 880.31-0.3 878.21 0.08 876.11 0.45 873.71 0.45L873.71 0.45ZM912.01 0.35L911.86 0.1 912.01-1.7Q914.11-1.85 914.83-2.15 915.56-2.45 915.56-3.15L915.56-3.15Q915.56-3.95 915.21-4.85L915.21-4.85 914.01-8.7Q913.01-8.75 909.86-8.75L909.86-8.75Q908.41-8.75 905.56-8.45L905.56-8.45 904.16-4.75Q903.81-3.6 903.81-3.35L903.81-3.35Q903.81-2.55 904.36-2.2 904.91-1.85 906.16-1.85L906.16-1.85 908.31-1.85 908.46-1.65 908.16 0.25Q907.66 0.2 905.88 0.1 904.11 0 902.41 0L902.41 0Q900.81 0 899.53 0.05 898.26 0.1 897.81 0.1L897.81 0.1 898.11-1.95Q899.21-2.1 899.86-2.73 900.51-3.35 901.16-4.85L901.16-4.85 909.01-24.7 912.56-25.35 912.91-25.3Q912.91-25.1 915.18-17.4 917.46-9.7 919.26-4.65L919.26-4.65Q919.76-3.2 920.53-2.63 921.31-2.05 923.01-1.9L923.01-1.9 923.11-1.7 922.86 0.1Q922.36 0.1 921.01 0.05 919.66 0 918.31 0L918.31 0Q916.26 0 914.41 0.15 912.56 0.3 912.01 0.35L912.01 0.35ZM906.36-10.8L909.76-10.8Q911.51-10.8 913.41-11L913.41-11 910.36-20.7 910.01-20.7 906.36-10.8ZM927.55 0.2L927.9-1.8Q929.9-1.95 930.73-2.3 931.55-2.65 931.78-3.48 932-4.3 932-6.35L932-6.35 932-22.9Q928.85-22.8 927.75-22.55 926.65-22.3 926.13-21.38 925.6-20.45 925.25-17.9L925.25-17.9 922.9-17.75Q923-18.4 923.23-20.63 923.45-22.85 923.5-25L923.5-25 923.9-25.35 927.45-24.95 940.2-24.95 943.85-25.35 944.25-25Q944.3-22.8 944.5-20.65 944.7-18.5 944.8-17.9L944.8-17.9 942.5-17.75Q942.1-20.35 941.58-21.33 941.05-22.3 940.03-22.55 939-22.8 936.1-22.9L936.1-22.9Q935.85-20.5 935.65-14.93 935.45-9.35 935.45-4.65L935.45-4.65Q935.45-3.2 936-2.6 936.55-2 937.8-2L937.8-2Q938.7-2 939.28-2.05 939.85-2.1 940-2.1L940-2.1 940.15-1.95 939.8 0.15Q939.1 0.15 937.2 0.08 935.3 0 933.5 0L933.5 0Q931.7 0 929.95 0.08 928.2 0.15 927.55 0.2L927.55 0.2ZM969.85 0.35L969.7 0.1 969.85-1.7Q971.95-1.85 972.67-2.15 973.4-2.45 973.4-3.15L973.4-3.15Q973.4-3.95 973.05-4.85L973.05-4.85 971.85-8.7Q970.85-8.75 967.7-8.75L967.7-8.75Q966.25-8.75 963.4-8.45L963.4-8.45 962-4.75Q961.65-3.6 961.65-3.35L961.65-3.35Q961.65-2.55 962.2-2.2 962.75-1.85 964-1.85L964-1.85 966.15-1.85 966.3-1.65 966 0.25Q965.5 0.2 963.72 0.1 961.95 0 960.25 0L960.25 0Q958.65 0 957.37 0.05 956.1 0.1 955.65 0.1L955.65 0.1 955.95-1.95Q957.05-2.1 957.7-2.73 958.35-3.35 959-4.85L959-4.85 966.85-24.7 970.4-25.35 970.75-25.3Q970.75-25.1 973.02-17.4 975.3-9.7 977.1-4.65L977.1-4.65Q977.6-3.2 978.37-2.63 979.15-2.05 980.85-1.9L980.85-1.9 980.95-1.7 980.7 0.1Q980.2 0.1 978.85 0.05 977.5 0 976.15 0L976.15 0Q974.1 0 972.25 0.15 970.4 0.3 969.85 0.35L969.85 0.35ZM964.2-10.8L967.6-10.8Q969.35-10.8 971.25-11L971.25-11 968.2-20.7 967.85-20.7 964.2-10.8ZM997.29 0.2L997.69-1.95Q1000.19-2.15 1001.14-2.58 1002.09-3 1002.39-4.13 1002.69-5.25 1002.69-8.1L1002.69-8.1 1002.69-29.9Q998.44-29.75 996.92-29.43 995.39-29.1 994.84-27.98 994.29-26.85 993.84-23.6L993.84-23.6 991.49-23.4Q992.09-28.15 992.24-32.05L992.24-32.05 992.69-32.45 996.84-31.9 1012.34-31.9 1016.59-32.45 1017.04-32.05Q1017.19-27.95 1017.79-23.6L1017.79-23.6 1015.44-23.4Q1014.89-26.7 1014.34-27.85 1013.79-29 1012.39-29.35 1010.99-29.7 1006.99-29.9L1006.99-29.9Q1006.69-26.9 1006.44-19.3 1006.19-11.7 1006.19-5.6L1006.19-5.6Q1006.19-3.75 1006.84-2.98 1007.49-2.2 1009.04-2.2L1009.04-2.2Q1010.54-2.2 1011.79-2.35L1011.79-2.35 1011.94-2.15 1011.49 0.15 1009.84 0.1 1004.14 0Q1001.39 0 997.29 0.2L997.29 0.2ZM1020.99 0.45L1021.24-1.6Q1023.14-1.95 1023.79-2.63 1024.44-3.3 1024.44-4.95L1024.44-4.95 1024.49-20.85Q1024.49-22.1 1024.19-22.53 1023.89-22.95 1022.99-22.95L1022.99-22.95 1021.34-22.9 1021.24-23.1 1021.49-25Q1021.79-25 1023.12-24.95 1024.44-24.9 1026.59-24.9L1026.59-24.9Q1027.74-24.9 1029.42-25.05 1031.09-25.2 1031.59-25.25L1031.59-25.25 1031.39-23.2Q1029.74-23 1029.19-22.58 1028.64-22.15 1028.54-21L1028.54-21Q1028.34-17 1028.17-12.15 1027.99-7.3 1027.99-4.65L1027.99-4.65Q1027.99-3.05 1028.34-2.5 1028.69-1.95 1029.74-1.95L1029.74-1.95Q1030.44-1.95 1031.02-2 1031.59-2.05 1031.79-2.1L1031.79-2.1 1031.89-1.9 1031.54 0.1Q1030.94 0.1 1029.29 0.05 1027.64 0 1025.99 0L1025.99 0Q1024.64 0 1023.07 0.18 1021.49 0.35 1020.99 0.45L1020.99 0.45ZM1050.84 0.7Q1045.79-13 1043.29-19.35L1043.29-19.35 1043.04-19.35Q1042.84-16.95 1042.31-10.4 1041.79-3.85 1041.79-3.2L1041.79-3.2Q1041.79-2.55 1042.09-2.27 1042.39-2 1043.09-2L1043.09-2 1044.69-2 1044.79-1.85 1044.44 0.15Q1043.99 0.15 1042.71 0.08 1041.44 0 1040.19 0L1040.19 0Q1039.19 0 1038.04 0.13 1036.89 0.25 1036.54 0.3L1036.54 0.3 1036.74-1.75Q1038.04-1.9 1038.59-2.53 1039.14-3.15 1039.34-4.7L1039.34-4.7Q1039.74-8.1 1040.41-14.25 1041.09-20.4 1041.09-21.15L1041.09-21.15Q1041.09-22.15 1040.31-22.63 1039.54-23.1 1037.64-23.2L1037.64-23.2 1037.49-23.45 1037.84-25.1Q1038.39-25.05 1039.79-24.98 1041.19-24.9 1042.49-24.9L1042.49-24.9Q1043.59-24.9 1044.51-24.95 1045.44-25 1045.74-25.05L1045.74-25.05Q1047.24-20.4 1048.66-16.32 1050.09-12.25 1051.01-9.83 1051.94-7.4 1052.19-6.8L1052.19-6.8 1052.44-6.8Q1052.99-8.2 1054.91-13.35 1056.84-18.5 1059.09-24.95L1059.09-24.95Q1059.39-25 1059.86-24.98 1060.34-24.95 1060.79-24.95L1060.79-24.95Q1061.34-24.9 1062.39-24.9L1062.39-24.9Q1063.19-24.9 1064.71-25 1066.24-25.1 1066.74-25.15L1066.74-25.15 1066.84-25 1066.59-23.25Q1064.84-23.05 1064.14-22.58 1063.44-22.1 1063.44-21.1L1063.44-21.1Q1063.44-20.1 1063.79-14.75 1064.14-9.4 1064.49-5.65L1064.49-5.65Q1064.74-3.4 1065.14-2.7 1065.54-2 1066.49-2L1066.49-2 1067.64-2.05 1067.74-1.9 1067.39 0.1Q1066.99 0.1 1065.84 0.05 1064.69 0 1063.39 0L1063.39 0Q1062.09 0 1060.44 0.15 1058.79 0.3 1058.69 0.3L1058.69 0.3 1058.89-1.75Q1060.19-1.9 1060.74-2.35 1061.29-2.8 1061.29-3.7L1061.29-3.7Q1061.29-4.6 1060.76-10.85 1060.24-17.1 1060.04-19.35L1060.04-19.35 1059.79-19.35Q1056.84-11.8 1052.29 0.4L1052.29 0.4 1050.84 0.7ZM1072.74 0.4L1072.99-1.7Q1074.84-1.9 1075.49-2.6 1076.14-3.3 1076.14-5L1076.14-5 1076.19-20.85Q1076.19-22.1 1075.89-22.53 1075.59-22.95 1074.69-22.95L1074.69-22.95 1073.34-22.9 1073.24-23.1 1073.54-25Q1074.14-25 1075.89-24.95 1077.64-24.9 1079.69-24.9L1079.69-24.9Q1088.04-24.9 1092.04-25.35L1092.04-25.35 1092.19-25.1Q1092.09-24.55 1091.74-22.6 1091.39-20.65 1091.24-18.4L1091.24-18.4 1088.84-18.2Q1088.84-18.4 1088.89-18.88 1088.94-19.35 1088.94-19.85L1088.94-19.85Q1088.94-21.15 1088.56-21.68 1088.19-22.2 1087.01-22.38 1085.84-22.55 1082.94-22.55L1082.94-22.55Q1081.59-22.55 1081.09-22.48 1080.59-22.4 1080.44-22.13 1080.29-21.85 1080.24-21.1L1080.24-21.1 1079.94-14 1084.04-13.95Q1084.94-13.95 1086.69-14.13 1088.44-14.3 1088.99-14.35L1088.99-14.35 1089.19-14.1 1088.59-11.5Q1088.04-11.5 1086.41-11.55 1084.79-11.6 1082.99-11.6L1082.99-11.6Q1081.59-11.6 1079.84-11.35L1079.84-11.35Q1079.69-7.55 1079.69-4.5L1079.69-4.5Q1079.69-3.35 1079.86-2.9 1080.04-2.45 1080.66-2.3 1081.29-2.15 1082.74-2.15L1082.74-2.15Q1085.99-2.15 1087.39-2.45 1088.79-2.75 1089.36-3.68 1089.94-4.6 1090.29-6.85L1090.29-6.85 1092.49-7.05 1092.69-6.8Q1092.54-6.25 1092.16-4.23 1091.79-2.2 1091.59 0L1091.59 0 1091.29 0.25Q1089.94 0.2 1085.69 0.1 1081.44 0 1078.79 0L1078.79 0Q1076.74 0 1074.99 0.18 1073.24 0.35 1072.74 0.4L1072.74 0.4Z" opacity="1" transform="matrix(1,0,0,1,0,0)" fill="#8abe53" class="slogan-text-1" data-fill-palette-color="secondary" id="text-1"></path></svg></g></svg></g></svg></g></svg></g><g transform="matrix(1,0,0,1,149.14956545812208,0)"><svg viewBox="0 0 99.19846908375578 73.13944513803615" height="73.13944513803615" width="99.19846908375578"><g><svg xmlns="http://www.w3.org/2000/svg" xmlns:xlink="http://www.w3.org/1999/xlink" version="1.1" x="8" y="0" viewBox="7 7.7 88.5 77.8" style="enable-background:new 0 0 100 100;" xml:space="preserve" height="73.13944513803615" width="83.19846908375578" class="icon-icon-0" data-fill-palette-color="accent" id="icon-0"><g fill="#8abe53" data-fill-palette-color="accent"><path d="M71.8 63C68.8 63 66.4 65.4 66.4 68.4S68.8 73.8 71.8 73.8 77.2 71.4 77.2 68.4C77.3 65.5 74.8 63 71.8 63M71.8 72.3C69.6 72.3 67.9 70.5 67.9 68.4 67.9 66.2 69.7 64.5 71.8 64.5 74 64.5 75.7 66.3 75.7 68.4 75.8 70.6 74 72.3 71.8 72.3M31.3 58.9C29.6 58.9 28 59.2 26.5 59.8V59.4C27.6 58.5 29 56.8 29 55.2V49.8C29 47.1 26.8 45 24.2 45H11.8C9.2 45 7 47.2 7 49.8V55.2C7 57.9 9.2 60 11.8 60H20.7L22.7 62C19.8 64.4 18 68 18 72.1 18 78.9 23.1 84.5 29.7 85.3 30.2 85.4 30.7 85.4 31.2 85.4 31.8 85.4 32.3 85.3 32.9 85.3 39.4 84.5 44.5 78.9 44.5 72.2 44.6 64.8 38.6 58.9 31.3 58.9M21.5 58.8C21.4 58.7 21.2 58.6 21 58.6H11.8C10 58.6 8.5 57.1 8.5 55.3V49.9C8.5 48.1 10 46.6 11.8 46.6H24.2C26 46.6 27.5 48.1 27.5 49.9V55.3C27.5 56.3 26.3 57.8 25.3 58.5 25.1 58.6 25 58.9 25 59.1V62.2zM31.3 83.9C30.2 83.9 29 83.7 27.9 83.3L27 79.6C27.1 77.4 29.8 76.6 31.5 76.6S35.8 77.4 36 79.6L35.1 83.2C33.9 83.7 32.6 83.9 31.3 83.9M36.8 82.5L37.5 79.7C37.5 76.6 34.3 75 31.5 75S25.5 76.5 25.5 79.7L26.3 82.7C22.3 80.8 19.6 76.8 19.6 72.1 19.6 68.5 21.2 65.2 23.8 63.1L25.2 64.5C25.3 64.6 25.5 64.7 25.7 64.7 25.8 64.7 25.9 64.7 26 64.6 26.3 64.5 26.5 64.2 26.5 63.9V61.3C28 60.6 29.6 60.3 31.3 60.3 37.8 60.3 43.1 65.6 43.1 72.1 43.1 76.7 40.5 80.6 36.8 82.5M31.5 63C28.5 63 26.1 65.4 26.1 68.4S28.5 73.8 31.5 73.8 36.9 71.4 36.9 68.4C36.9 65.5 34.5 63 31.5 63M31.5 72.3C29.3 72.3 27.6 70.5 27.6 68.4 27.6 66.2 29.4 64.5 31.5 64.5S35.4 66.3 35.4 68.4C35.4 70.6 33.7 72.3 31.5 72.3M64.9 35.4C64.9 28.1 59 22.1 51.6 22.1 50.3 22.1 49.1 22.3 48 22.6V22.1C49.1 21.3 50.4 19.6 50.4 17.9V12.5C50.4 9.8 48.2 7.7 45.6 7.7H33.3C30.6 7.7 28.5 9.9 28.5 12.5V18C28.5 20.7 30.7 22.8 33.3 22.8H42.2L44 24.6C40.6 27 38.4 30.9 38.4 35.4 38.4 42.7 44.3 48.7 51.7 48.7S64.9 42.7 64.9 35.4M43 21.5C42.9 21.4 42.7 21.3 42.5 21.3H33.3C31.5 21.3 30 19.8 30 18V12.6C30 10.8 31.5 9.3 33.3 9.3H45.7C47.5 9.3 49 10.8 49 12.6V18C49 19 47.9 20.5 46.9 21.2 46.7 21.3 46.6 21.6 46.6 21.8V25zM55.4 46.3C54.2 46.8 53 47.1 51.7 47.1 50.6 47.1 49.4 46.9 48.3 46.5L47.4 42.8C47.5 40.6 50.2 39.8 51.9 39.8S56.2 40.6 56.4 42.8zM57.1 45.8L57.9 42.9C57.9 39.8 54.7 38.2 51.9 38.2S45.9 39.7 45.9 42.9L46.7 46C42.7 44.1 40 40.1 40 35.4 40 31.4 42 27.8 45.2 25.7L46.8 27.3C46.9 27.4 47.1 27.5 47.3 27.5 47.4 27.5 47.5 27.5 47.6 27.4 47.9 27.3 48.1 27 48.1 26.7V24.1C49.2 23.7 50.5 23.5 51.7 23.5 58.2 23.5 63.5 28.8 63.5 35.3 63.4 39.9 60.8 43.8 57.1 45.8M54.9 27.2C54.3 26.8 53.7 26.5 53 26.4 52.6 26.3 52.3 26.3 51.9 26.3 48.9 26.3 46.5 28.7 46.5 31.7S48.9 37.1 51.9 37.1C52.3 37.1 52.6 37.1 53 37 53.7 36.9 54.4 36.6 54.9 36.2 56.3 35.2 57.3 33.6 57.3 31.7S56.3 28.2 54.9 27.2M51.8 35.6C49.6 35.6 47.9 33.8 47.9 31.7S49.7 27.8 51.8 27.8C54 27.8 55.7 29.6 55.7 31.7S54 35.6 51.8 35.6M90.7 45H78.3C75.6 45 73.5 47.2 73.5 49.8V55.2C73.5 56.7 74.6 58.4 75.8 59.3V59.5C74.5 59.1 73.1 58.8 71.7 58.8 64.4 58.8 58.4 64.7 58.4 72.1 58.4 78.2 62.5 83.3 68.1 84.8 69.3 85.2 70.5 85.5 71.8 85.5 73.5 85.5 75.2 85.1 76.7 84.3H76.8C81.6 82.3 84.9 77.6 84.9 72.1 84.9 67.9 83 64.2 80 61.8L81.8 60H90.7C93.4 60 95.5 57.8 95.5 55.2V49.8C95.5 47.2 93.4 45 90.7 45M75.5 83.3C74.3 83.8 73.1 84.1 71.8 84.1 70.7 84.1 69.5 83.9 68.4 83.5L67.5 79.8C67.6 77.6 70.3 76.8 72 76.8S76.3 77.6 76.5 79.8zM83.4 72.1C83.4 76.5 80.9 80.4 77.3 82.4L78 79.8C78 76.7 74.8 75.1 72 75.1S66 76.6 66 79.8L66.7 82.7C62.7 80.8 59.9 76.8 59.9 72.1 59.9 65.6 65.2 60.3 71.7 60.3 73.2 60.3 74.6 60.6 75.9 61.1L76 64C76 64.3 76.2 64.6 76.5 64.7 76.6 64.7 76.7 64.8 76.8 64.8 77 64.8 77.2 64.7 77.3 64.6L78.9 63C81.7 65.1 83.4 68.4 83.4 72.1M94 55.2C94 57 92.5 58.5 90.7 58.5H81.5C81.3 58.5 81.1 58.6 81 58.7L77.4 62.2 77.2 58.8C77.2 58.6 77.1 58.3 76.9 58.2 76 57.6 75 56.2 75 55.1V49.7C75 47.9 76.5 46.4 78.3 46.4H90.7C92.5 46.4 94 47.9 94 49.7zM61.7 52.7L57.3 51.8C56.9 51.7 56.6 51.3 56.7 50.9S57.2 50.2 57.6 50.3L58.5 50.5 61.4 51.1 62.2 48.4 62.4 47.7C62.5 47.3 62.9 47.1 63.3 47.2S63.9 47.7 63.8 48.1L62.6 52.2C62.5 52.5 62.2 52.7 61.9 52.7zM64.3 56.5L65.1 53.8 65.3 53.1C65.4 52.7 65.8 52.5 66.2 52.6S66.8 53.1 66.7 53.5L65.5 57.6C65.4 57.9 65.1 58.1 64.8 58.1H64.7L60.3 57.2C59.9 57.1 59.6 56.7 59.7 56.3S60.2 55.6 60.6 55.7L61.5 55.9zM35 55.3L39.4 54.3C39.8 54.2 40.2 54.4 40.3 54.8L41.6 58.8C41.7 59.2 41.5 59.6 41.1 59.7H40.9C40.6 59.7 40.3 59.5 40.2 59.2L40 58.5 39.1 55.9 36.2 56.6 35.4 56.8C35 56.9 34.6 56.6 34.5 56.2S34.6 55.4 35 55.3M37.1 50.8C37 50.4 37.3 50 37.7 49.9L42.1 48.9C42.5 48.8 42.9 49 43 49.4L44.3 53.4C44.4 53.8 44.2 54.2 43.8 54.3H43.6C43.3 54.3 43 54.1 42.9 53.8L42.7 53.1 41.8 50.5 38.9 51.2 38 51.4C37.6 51.5 37.2 51.2 37.1 50.8M56.5 74.9C56.8 75.2 56.8 75.6 56.6 76 56.5 76.2 56.2 76.3 56 76.3S55.6 76.2 55.5 76.1L52.3 73.3C52 73 52 72.6 52.2 72.3L54.9 68.7C55.1 68.4 55.6 68.3 55.9 68.5S56.3 69.2 56.1 69.5L55.6 70.2 53.8 72.6 55.9 74.4zM50.9 74.7C51.2 75 51.2 75.4 51 75.8 50.8 76 50.6 76 50.4 76S50 75.9 49.9 75.8L46.7 73C46.4 72.7 46.4 72.3 46.6 72L49.3 68.4C49.5 68.1 50 68 50.3 68.2S50.7 68.9 50.5 69.2L50 70 48.2 72.4 50.3 74.2z" fill="#8abe53" data-fill-palette-color="accent"></path></g></svg></g></svg></g><g><rect width="72.6164454581221" height="2.794141623057199" y="69.34530351497895" x="248.34803454187787" fill="#8abe53" data-fill-palette-color="secondary"></rect><rect width="72.6164454581221" height="2.794141623057199" y="69.34530351497895" x="76.53311999999997" fill="#8abe53" data-fill-palette-color="secondary"></rect></g></svg></g><defs></defs></svg><rect width="395.52" height="142.77164036637748" fill="none" stroke="none" visibility="hidden"></rect></g></svg></g></svg>